<svg width="165" height="30" viewBox="0 0 165 30" fill="none" xmlns="http://www.w3.org/2000/svg">
<path d="M30.28 14.5947C30.28 13.4975 30.4871 12.409 30.9012 11.329C31.3154 10.2319 31.9193 9.25472 32.7131 8.39758C33.5068 7.54043 34.4732 6.84614 35.612 6.31471C36.7509 5.78329 38.0451 5.51758 39.4946 5.51758C41.2201 5.51758 42.7128 5.88614 43.9724 6.62329C45.2494 7.36043 46.1984 8.32043 46.8197 9.50327L43.5583 11.7662C43.3512 11.2862 43.0838 10.8919 42.7559 10.5833C42.4453 10.2575 42.1002 10.0005 41.7206 9.81181C41.3409 9.60618 40.9527 9.469 40.5558 9.40045C40.1589 9.31472 39.7707 9.2719 39.391 9.2719C38.58 9.2719 37.8726 9.43472 37.2686 9.76045C36.6647 10.0862 36.1642 10.5062 35.7673 11.0205C35.3705 11.5347 35.0771 12.1175 34.8873 12.769C34.6975 13.4205 34.6026 14.0805 34.6026 14.749C34.6026 15.469 34.7148 16.1633 34.939 16.8319C35.1634 17.5005 35.4827 18.0918 35.8968 18.6062C36.3281 19.1205 36.8372 19.5318 37.4239 19.8405C38.0278 20.1319 38.7008 20.2775 39.4428 20.2775C39.8224 20.2775 40.2107 20.2347 40.6076 20.149C41.0217 20.0462 41.4099 19.9005 41.7723 19.7119C42.1519 19.5062 42.497 19.249 42.8077 18.9405C43.1183 18.6147 43.3685 18.2205 43.5583 17.7575L47.0267 19.789C46.7506 20.4575 46.3365 21.0575 45.7843 21.589C45.2494 22.1205 44.6281 22.5662 43.9207 22.9262C43.2132 23.2862 42.4626 23.5605 41.6688 23.749C40.875 23.9375 40.0985 24.0318 39.3393 24.0318C38.0106 24.0318 36.7854 23.7662 35.6638 23.2347C34.5595 22.6862 33.6018 21.9662 32.7908 21.0747C31.9969 20.1833 31.3758 19.1719 30.9271 18.0405C30.4958 16.909 30.28 15.7605 30.28 14.5947ZM55.9948 23.8775H51.8792V13.9519H47.7897V10.3775H60.0585V13.9519H55.9948V23.8775ZM62.4897 25.909C62.783 26.0462 63.0591 26.1319 63.3179 26.1662C63.594 26.2175 63.8269 26.2433 64.0168 26.2433C64.4137 26.2433 64.7415 26.0719 65.0004 25.729C65.2765 25.4033 65.4921 24.7862 65.6475 23.8775L60.4708 10.3775H64.7415L67.8993 20.3547L70.6171 10.3775H74.4997L69.5041 25.5747C69.0209 27.0319 68.3566 28.1033 67.511 28.789C66.6655 29.4747 65.6475 29.8175 64.4568 29.8175C64.1117 29.8175 63.7666 29.7833 63.4215 29.7147C63.0936 29.6633 62.783 29.569 62.4897 29.4318V25.909ZM73.6726 20.3033H74.3714C74.7683 20.269 75.0962 20.1747 75.355 20.0205C75.6311 19.849 75.864 19.5575 76.0538 19.1462C76.2437 18.7347 76.3989 18.1775 76.5198 17.4747C76.6406 16.7718 76.7614 15.8719 76.8821 14.7747L77.348 10.3775H87.4685V20.3033H89.4097V27.5033H85.7084V23.8775H77.2445V27.5033H73.6726V20.3033ZM83.353 20.3033V13.9004H80.9199L80.7388 15.4175C80.6007 16.5319 80.4196 17.4747 80.1952 18.2462C79.9709 19.0175 79.6862 19.7033 79.341 20.3033H83.353ZM100.343 10.3775C100.86 10.3775 101.326 10.4719 101.74 10.6605C102.154 10.849 102.508 11.1062 102.802 11.4319C103.094 11.7405 103.319 12.109 103.474 12.5375C103.647 12.949 103.734 13.3775 103.734 13.8233C103.734 14.4233 103.569 15.0147 103.242 15.5975C102.931 16.1633 102.414 16.5918 101.688 16.8833C102.499 17.1233 103.138 17.5175 103.604 18.0662C104.087 18.5975 104.328 19.3433 104.328 20.3033C104.328 21.5718 103.863 22.489 102.931 23.0547C101.999 23.6033 100.722 23.8775 99.0999 23.8775H91.6199V10.3775H100.343ZM98.3236 15.9319C98.7208 15.9319 99.0399 15.829 99.2808 15.6233C99.5227 15.4005 99.6436 15.0662 99.6436 14.6205C99.6436 14.2605 99.5318 13.9605 99.3072 13.7205C99.0827 13.4633 98.7727 13.3347 98.3754 13.3347H95.7608V15.9319H98.3236ZM98.8408 20.9205C99.2208 20.9205 99.5317 20.7919 99.7727 20.5347C100.032 20.2775 100.162 19.9519 100.162 19.5575C100.162 19.129 100.041 18.7862 99.799 18.529C99.5572 18.2719 99.2381 18.1433 98.8408 18.1433H95.7608V20.9205H98.8408ZM112.902 24.1347C111.746 24.1347 110.711 23.9462 109.796 23.569C108.899 23.1918 108.14 22.6862 107.518 22.0519C106.897 21.4005 106.423 20.6547 106.094 19.8147C105.784 18.9575 105.629 18.0662 105.629 17.1405C105.629 16.2147 105.784 15.3319 106.094 14.4919C106.423 13.6347 106.897 12.889 107.518 12.2547C108.14 11.6033 108.899 11.089 109.796 10.7119C110.711 10.3175 111.746 10.1205 112.902 10.1205C114.058 10.1205 115.085 10.3175 115.983 10.7119C116.88 11.089 117.639 11.6033 118.26 12.2547C118.881 12.889 119.355 13.6347 119.684 14.4919C120.012 15.3319 120.175 16.2147 120.175 17.1405C120.175 18.0662 120.012 18.9575 119.684 19.8147C119.373 20.6547 118.907 21.4005 118.286 22.0519C117.664 22.6862 116.897 23.1918 115.983 23.569C115.085 23.9462 114.058 24.1347 112.902 24.1347ZM109.874 17.1405C109.874 18.2033 110.158 19.0605 110.728 19.7119C111.297 20.3462 112.022 20.6633 112.902 20.6633C113.334 20.6633 113.731 20.5775 114.093 20.4062C114.455 20.2347 114.765 19.9947 115.024 19.6862C115.301 19.3775 115.516 19.009 115.672 18.5805C115.827 18.1347 115.904 17.6547 115.904 17.1405C115.904 16.0775 115.62 15.229 115.051 14.5947C114.481 13.9433 113.765 13.6175 112.902 13.6175C112.471 13.6175 112.065 13.7033 111.685 13.8747C111.324 14.0462 111.004 14.2862 110.728 14.5947C110.469 14.9033 110.262 15.2805 110.107 15.7262C109.952 16.1547 109.874 16.6262 109.874 17.1405ZM130.874 24.1347C129.839 24.1347 128.942 23.9205 128.182 23.4918C127.423 23.0633 126.836 22.4633 126.422 21.6919V29.3547H122.281V10.3775H125.878V12.5633C126.379 11.7919 127 11.1919 127.742 10.7633C128.502 10.3347 129.399 10.1205 130.434 10.1205C131.348 10.1205 132.185 10.3005 132.944 10.6605C133.721 11.0205 134.385 11.5175 134.938 12.1519C135.507 12.769 135.947 13.5062 136.258 14.3633C136.585 15.2033 136.75 16.1119 136.75 17.089C136.75 18.1005 136.603 19.0347 136.31 19.8919C136.016 20.749 135.611 21.4947 135.093 22.129C134.575 22.7462 133.954 23.2347 133.229 23.5947C132.504 23.9547 131.72 24.1347 130.874 24.1347ZM129.476 20.6633C129.924 20.6633 130.331 20.569 130.693 20.3805C131.073 20.1747 131.4 19.909 131.676 19.5833C131.953 19.2575 132.16 18.8805 132.297 18.4519C132.453 18.0062 132.531 17.5433 132.531 17.0633C132.531 16.5662 132.444 16.1119 132.272 15.7005C132.116 15.2719 131.892 14.9033 131.599 14.5947C131.323 14.2862 130.977 14.0462 130.564 13.8747C130.166 13.7033 129.735 13.6175 129.269 13.6175C128.7 13.6175 128.147 13.789 127.613 14.1319C127.095 14.4575 126.698 14.9033 126.422 15.469V18.2462C126.698 18.9319 127.113 19.5062 127.664 19.969C128.234 20.4319 128.838 20.6633 129.476 20.6633ZM147.326 10.3775H151.753L146.446 16.909L152.193 23.8775H147.43L143.496 19.069H142.953V23.8775H138.863V10.3775H142.953V15.4433H143.418L147.326 10.3775Z" fill="white"/>
<path d="M22.7945 27.4521C22.7945 27.4521 15.3979 3.96315 0 4.92674C0 4.92674 1.90963 7.99775 6.72905 8.99135C6.72905 8.99135 4.48447 9.26407 2.66789 8.66093C2.66789 8.66093 3.75877 12.1548 9.69927 12.6354C9.69927 12.6354 6.42435 13.4789 4.97061 12.9959C4.97061 12.9959 5.36602 15.6024 11.4135 16.8964C11.7718 16.9728 14.1861 17.5735 12.2463 17.8139C12.2463 17.8139 9.45745 18.2968 8.73169 18.0542C8.73169 18.0542 11.1182 21.6082 16.9773 21.3054C17.5541 21.2753 17.8263 21.3054 17.8263 21.3054L22.7945 27.4521Z" fill="#FFC96B"/>
</svg>
