<svg width="16" height="18" viewBox="0 0 16 18" fill="none" xmlns="http://www.w3.org/2000/svg">
<path d="M7.59023 9.69895C7.60886 9.69895 7.6275 9.69895 7.64986 9.69895C7.65731 9.69895 7.66478 9.69895 7.67225 9.69895C7.68341 9.69895 7.69835 9.69895 7.70951 9.69895C8.80166 9.68032 9.68511 9.29638 10.3373 8.56204C11.7725 6.9443 11.5339 4.17106 11.5078 3.9064C11.4146 1.91966 10.4753 0.969148 9.69996 0.525576C9.12225 0.19383 8.44751 0.01491 7.69457 0H7.66847C7.66478 0 7.65731 0 7.65359 0H7.63122C7.21747 0 6.40488 0.0670947 5.62584 0.510665C4.84306 0.954235 3.88883 1.90474 3.79564 3.9064C3.76955 4.17106 3.53099 6.9443 4.96608 8.56204C5.61465 9.29638 6.49807 9.68032 7.59023 9.69895ZM4.79088 3.99959C4.79088 3.98841 4.79461 3.97722 4.79461 3.96977C4.91762 1.29716 6.8149 1.01015 7.6275 1.01015H7.64241C7.64986 1.01015 7.661 1.01015 7.67225 1.01015C8.67863 1.03252 10.3895 1.44254 10.5051 3.96977C10.5051 3.98096 10.5051 3.99214 10.5089 3.99959C10.5126 4.02569 10.7735 6.56037 9.58818 7.89481C9.11847 8.42412 8.49224 8.68504 7.66847 8.69249C7.661 8.69249 7.65731 8.69249 7.64986 8.69249C7.64241 8.69249 7.63868 8.69249 7.63122 8.69249C6.81118 8.68504 6.18123 8.42412 5.7153 7.89481C4.53369 6.56783 4.78716 4.02195 4.79088 3.99959Z" fill="#FFC96B"/>
<path d="M15.3098 14.2986C15.3098 14.2949 15.3098 14.2911 15.3098 14.2874C15.3098 14.2576 15.3061 14.2278 15.3061 14.1942C15.2837 13.4562 15.2353 11.7303 13.6175 11.1787C13.6064 11.175 13.5914 11.1713 13.5803 11.1675C11.8992 10.7388 10.5014 9.76969 10.4864 9.75853C10.2591 9.59824 9.94597 9.65413 9.78568 9.88156C9.62539 10.1089 9.68128 10.422 9.90872 10.5823C9.97208 10.627 11.4555 11.6595 13.3119 12.1367C14.1804 12.446 14.2773 13.3742 14.3034 14.2241C14.3034 14.2576 14.3034 14.2874 14.3071 14.3172C14.3108 14.6527 14.2885 15.1709 14.2288 15.469C13.625 15.8119 11.258 16.9973 7.65727 16.9973C4.07143 16.9973 1.68957 15.8083 1.08199 15.4654C1.02234 15.1671 0.996254 14.649 1.00371 14.3135C1.00371 14.2836 1.00744 14.2539 1.00744 14.2203C1.03353 13.3704 1.13044 12.4423 1.99895 12.1329C3.85523 11.6558 5.33878 10.6196 5.40214 10.5786C5.62951 10.4183 5.68543 10.1052 5.52515 9.87778C5.36487 9.65044 5.05176 9.59455 4.82438 9.75484C4.80947 9.766 3.41912 10.7351 1.73056 11.1638C1.71566 11.1675 1.70447 11.1713 1.6933 11.175C0.0755609 11.7303 0.0271049 13.4562 0.00473991 14.1905C0.00473991 14.2241 0.00473989 14.2539 0.00101388 14.2836C0.00101388 14.2874 0.00101388 14.2911 0.00101388 14.2949C-0.00271212 14.4887 -0.00643809 15.484 0.191121 15.9834C0.22839 16.0803 0.295485 16.1623 0.384945 16.2183C0.496771 16.2928 3.17683 18 7.66096 18C12.1451 18 14.8252 16.2891 14.937 16.2183C15.0228 16.1623 15.0936 16.0803 15.1309 15.9834C15.3173 15.4877 15.3135 14.4924 15.3098 14.2986Z" fill="#FFC96B"/>
</svg>
