<svg width="536" height="580" viewBox="0 0 536 580" fill="none" xmlns="http://www.w3.org/2000/svg">
<path d="M396.736 435.866L395.256 436.209L393.046 426.694C392.862 425.902 392.712 425.148 392.597 424.43C392.499 424.588 392.387 424.755 392.261 424.932C392.135 425.109 391.549 425.871 390.501 427.217L389.456 426.363L392.356 422.812L393.634 422.515L396.736 435.866Z" fill="white"/>
<path fill-rule="evenodd" clip-rule="evenodd" d="M10.7075 144.494C10.7075 144.494 36.9925 169.97 23.106 193.199C23.106 193.199 34.8808 175.109 71.6276 193.14C71.6276 193.14 49.5738 173.984 56.3235 144.077C56.3235 144.077 45.2319 160.862 10.71 144.493" fill="#FEF38E"/>
<path fill-rule="evenodd" clip-rule="evenodd" d="M10.7075 144.494C10.7075 144.494 36.9925 169.97 23.106 193.199C23.106 193.199 34.8808 175.109 71.6276 193.14C71.6276 193.14 49.5738 173.984 56.3235 144.077C56.3235 144.077 45.2319 160.862 10.71 144.493L10.7075 144.494Z" stroke="#001A34" stroke-width="3" stroke-linecap="square" stroke-linejoin="bevel"/>
<path fill-rule="evenodd" clip-rule="evenodd" d="M355.9 15.7257C355.9 15.7257 344.205 64.1422 307.372 63.9261C307.372 63.9261 336.715 65.2261 340.976 120.767C340.976 120.767 348.189 81.6726 387.912 68.9127C387.912 68.9127 360.573 67.5138 355.9 15.7257Z" fill="#FEF38E"/>
<path fill-rule="evenodd" clip-rule="evenodd" d="M355.9 15.7257C355.9 15.7257 344.205 64.1422 307.372 63.9261C307.372 63.9261 336.715 65.2261 340.976 120.767C340.976 120.767 348.189 81.6726 387.912 68.9127C387.912 68.9127 360.573 67.5138 355.9 15.7257V15.7257Z" stroke="#001A34" stroke-width="3" stroke-linecap="square" stroke-linejoin="bevel"/>
<path fill-rule="evenodd" clip-rule="evenodd" d="M491.906 305.314C491.906 305.314 475.54 335.875 450.769 329.269C450.769 329.269 470.306 335.29 463.441 373.446C463.441 373.446 475.152 348.381 504.145 346.748C504.145 346.748 485.973 341.012 491.906 305.314Z" fill="#FEF38E"/>
<path fill-rule="evenodd" clip-rule="evenodd" d="M491.906 305.314C491.906 305.314 475.54 335.875 450.769 329.269C450.769 329.269 470.306 335.29 463.441 373.446C463.441 373.446 475.152 348.381 504.145 346.748C504.145 346.748 485.973 341.012 491.906 305.314V305.314Z" stroke="#001A34" stroke-width="3" stroke-linecap="square" stroke-linejoin="bevel"/>
<path fill-rule="evenodd" clip-rule="evenodd" d="M417.93 449.654C335.76 489.741 256.774 534.475 170.461 565.511C162.936 448.62 111.165 346.357 62.3047 242.361C62.3047 242.361 254.643 159.231 280.873 142.158C280.873 142.158 326.848 184.488 395.716 373.857C404.72 398.626 412.14 423.943 417.93 449.654Z" fill="#EFF4F7"/>
<path fill-rule="evenodd" clip-rule="evenodd" d="M417.93 449.654C335.76 489.741 256.774 534.475 170.461 565.511C162.936 448.62 111.165 346.357 62.3047 242.361C62.3047 242.361 254.643 159.231 280.873 142.158C280.873 142.158 326.848 184.488 395.716 373.857C404.72 398.626 412.14 423.943 417.93 449.654V449.654Z" stroke="#001A36" stroke-width="3"/>
<path fill-rule="evenodd" clip-rule="evenodd" d="M302.818 224.713C314.166 250.41 304.247 280.668 278.548 293.176C252.849 305.685 226.204 292.31 215.104 266.816C204.007 241.323 213.043 212.409 238.589 200.342C264.135 188.275 291.469 199.013 302.818 224.713Z" fill="#6147DE"/>
<path d="M182.823 418.327C214.145 405.094 244.622 389.931 274.652 374.01M302.818 224.713C314.166 250.41 304.247 280.668 278.548 293.176C252.849 305.685 226.204 292.31 215.104 266.816C204.007 241.324 213.043 212.41 238.589 200.342C264.135 188.275 291.469 199.013 302.818 224.713V224.713ZM175.944 399.754C207.244 386.255 237.742 370.995 267.861 355.058L175.944 399.754ZM187.522 440.547C219.644 426.929 250.93 411.761 281.73 395.375L187.522 440.547Z" stroke="#001A36" stroke-width="2.682" stroke-linecap="square"/>
<path fill-rule="evenodd" clip-rule="evenodd" d="M346.541 370.69C343.472 379.413 336.48 414.293 324.282 413.351C323.03 413.252 321.835 414.178 321.462 415.339L320.734 417.62L320.455 416.376C319.886 413.812 315.527 413.311 314.997 416.177C313.024 426.797 311.052 437.414 309.083 448.035L302.794 411.758C302.171 408.166 296.658 409.457 297.281 413.038L306.225 464.627C306.682 467.274 311.166 467.611 311.684 464.826L318.102 430.245C319.419 431.759 322.245 431.462 322.945 429.272C325.317 421.865 325.418 421.477 331.226 418.042C334.018 416.386 335.78 414.667 337.548 411.894C344.665 400.725 347.576 384.787 351.948 372.368C353.159 368.92 347.748 367.262 346.541 370.69Z" fill="#001A36"/>
<path d="M295.224 468.325C295.279 468.478 295.272 468.653 295.205 468.85C295.168 469.036 295.229 469.205 295.387 469.355C295.3 469.594 295.281 469.878 295.33 470.206C295.409 470.524 295.405 470.802 295.318 471.041C295.382 471.121 295.43 471.208 295.463 471.3C295.516 471.35 295.585 471.446 295.671 471.588C295.676 471.794 295.71 471.938 295.774 472.018C295.826 472.069 295.848 472.13 295.84 472.202C295.853 472.336 295.836 472.48 295.788 472.636C295.771 472.78 295.759 472.94 295.753 473.115C295.738 473.363 295.739 473.605 295.755 473.841C295.801 474.067 295.807 474.324 295.773 474.613C295.705 474.81 295.643 475.023 295.587 475.251C295.561 475.468 295.499 475.68 295.401 475.888C295.395 476.064 295.434 476.171 295.517 476.21C295.62 476.208 295.693 476.268 295.737 476.39C295.659 476.557 295.596 476.718 295.548 476.873C295.52 476.987 295.55 477.167 295.638 477.412C295.378 477.748 295.181 478.113 295.046 478.507C294.911 478.901 294.781 479.311 294.658 479.736C294.553 480.12 294.449 480.503 294.345 480.887C294.241 481.27 294.1 481.649 293.924 482.024C293.74 482.09 293.618 482.186 293.56 482.31C293.501 482.435 293.427 482.566 293.337 482.702C293.298 482.785 293.228 482.879 293.128 482.985C293.027 483.09 292.942 483.19 292.872 483.284C292.612 483.62 292.386 483.857 292.194 483.995C291.99 484.103 291.802 484.205 291.629 484.302C291.387 484.493 291.129 484.689 290.856 484.892C290.582 485.094 290.299 485.316 290.006 485.56C289.764 485.751 289.516 485.927 289.262 486.087C289.039 486.237 288.733 486.347 288.343 486.418C288.245 486.626 288.129 486.737 287.996 486.75C287.893 486.753 287.734 486.793 287.52 486.87C287.397 486.914 287.259 486.963 287.106 487.018C286.995 487.093 286.841 487.148 286.647 487.184C286.277 487.213 286.004 487.224 285.829 487.218C285.654 487.212 285.489 487.236 285.336 487.292C285.264 487.283 285.172 487.316 285.061 487.391C284.98 487.454 284.878 487.508 284.755 487.552C284.635 487.699 284.404 487.73 284.063 487.646C283.751 487.55 283.515 487.566 283.353 487.693C283.023 487.639 282.754 487.615 282.548 487.62C282.332 487.594 282.13 487.563 281.944 487.526C281.841 487.528 281.738 487.531 281.635 487.533C281.552 487.494 281.474 487.47 281.402 487.461C280.999 487.399 280.585 487.305 280.16 487.181C279.765 487.047 279.417 486.895 279.114 486.727C278.992 486.771 278.894 486.789 278.822 486.78C278.739 486.741 278.651 486.738 278.559 486.771C278.287 486.592 278.11 486.483 278.026 486.444C277.974 486.394 277.9 486.334 277.806 486.264C277.598 486.166 277.463 486.128 277.402 486.15C277.36 486.13 277.313 486.095 277.26 486.045C277.041 485.916 276.895 485.847 276.823 485.839C276.74 485.8 276.656 485.76 276.573 485.721C276.393 485.509 276.286 485.357 276.253 485.265C276.251 485.162 276.223 485.086 276.171 485.036C275.993 484.927 275.867 484.816 275.792 484.705C275.718 484.593 275.618 484.508 275.493 484.449C275.418 484.338 275.37 484.251 275.348 484.19C275.356 484.118 275.339 484.02 275.294 483.898C275.062 483.636 274.94 483.489 274.929 483.459C274.938 483.386 274.936 483.335 274.925 483.304C274.84 483.162 274.78 483.045 274.747 482.953C274.734 482.82 274.716 482.722 274.694 482.661C274.459 482.296 274.292 481.975 274.193 481.7C274.124 481.413 273.98 481.205 273.761 481.077C273.809 480.921 273.839 480.668 273.851 480.318C274.337 479.935 274.933 479.669 275.64 479.519C276.366 479.327 277.023 479.038 277.612 478.654C277.712 478.549 277.813 478.443 277.913 478.338C278.014 478.233 278.156 478.147 278.34 478.081C278.493 478.026 278.591 478.059 278.635 478.182C278.679 478.304 278.753 478.364 278.856 478.362C279.095 478.449 279.253 478.6 279.33 478.814C279.396 478.998 279.459 479.269 279.519 479.628C279.543 479.793 279.562 479.941 279.576 480.075C279.62 480.198 279.669 480.335 279.724 480.489C279.799 480.6 279.91 480.716 280.057 480.836C280.204 480.956 280.336 481.082 280.452 481.213C280.601 481.436 280.838 481.662 281.163 481.891C281.489 481.739 281.771 481.707 282.01 481.794C282.249 481.881 282.502 481.911 282.769 481.884C282.907 482.077 283.07 482.191 283.256 482.228C283.462 482.223 283.638 482.281 283.785 482.401C284.186 482.361 284.607 482.33 285.049 482.31C285.511 482.247 285.957 482.139 286.385 481.985C286.6 481.908 286.793 481.821 286.966 481.724C287.17 481.616 287.38 481.575 287.597 481.601C287.798 481.39 288.025 481.205 288.279 481.044C288.552 480.842 288.793 480.6 289.003 480.317C289.193 480.076 289.287 479.904 289.284 479.801C289.312 479.687 289.346 479.588 289.385 479.505C289.523 479.213 289.626 479.02 289.696 478.926C289.786 478.79 289.844 478.665 289.873 478.551C289.971 478.343 290.019 478.187 290.016 478.085C290.044 477.971 290.078 477.872 290.117 477.789C290.146 477.675 290.189 477.555 290.248 477.43C290.296 477.275 290.328 477.125 290.345 476.98C290.374 476.866 290.366 476.748 290.322 476.626C290.297 476.461 290.294 476.307 290.311 476.162C290.339 476.048 290.352 475.94 290.349 475.837C290.378 475.723 290.395 475.579 290.401 475.403C290.41 475.331 290.382 475.255 290.318 475.174C290.285 475.082 290.268 474.984 290.265 474.882C290.271 474.706 290.268 474.552 290.254 474.418C290.261 474.243 290.267 474.068 290.273 473.893C290.277 473.615 290.242 473.229 290.169 472.737C290.095 472.244 289.966 471.789 289.781 471.371C289.685 471.199 289.563 471.052 289.416 470.932C289.288 470.77 289.232 470.566 289.247 470.318C289.1 470.198 288.953 470.078 288.806 469.958C288.659 469.838 288.536 469.64 288.437 469.364C288.331 469.264 288.232 469.179 288.137 469.109C288.043 469.039 287.938 468.938 287.821 468.807C287.641 468.595 287.39 468.426 287.068 468.3C286.765 468.132 286.473 467.943 286.19 467.734C286.106 467.694 285.991 467.615 285.844 467.495C285.697 467.374 285.561 467.285 285.436 467.226C285.323 467.198 285.184 467.196 285.019 467.22C284.855 467.245 284.74 467.165 284.674 466.981C284.562 467.056 284.45 467.079 284.336 467.051C284.222 467.023 284.077 467.006 283.902 467C283.624 466.996 283.372 467.017 283.147 467.064C282.91 467.079 282.597 467.123 282.208 467.194C282.044 467.218 281.885 467.258 281.732 467.313C281.598 467.327 281.485 467.35 281.394 467.383C281.262 467.499 281.115 467.57 280.951 467.594C280.775 467.588 280.721 467.677 280.787 467.86C280.671 467.729 280.495 467.723 280.261 467.842C280.058 467.95 279.921 468.051 279.852 468.145C279.289 468.313 278.867 468.534 278.585 468.808C278.334 469.071 278.005 469.311 277.598 469.526C277.487 469.601 277.417 469.695 277.388 469.809C277.38 469.881 277.341 469.965 277.271 470.059C277.107 470.083 277.005 470.137 276.966 470.221C276.915 470.273 276.818 470.291 276.673 470.274C276.458 470.732 276.266 471.112 276.098 471.415C275.95 471.676 275.822 471.946 275.715 472.227C275.571 472.21 275.489 472.222 275.469 472.264C275.439 472.275 275.352 472.323 275.21 472.409C274.857 472.293 274.62 472.258 274.497 472.302C274.394 472.304 274.28 472.276 274.155 472.217C274.039 472.086 273.974 471.954 273.961 471.82C273.947 471.687 273.928 471.538 273.904 471.374C273.72 470.575 273.739 469.859 273.961 469.225C273.843 468.991 273.767 468.828 273.734 468.737C273.72 468.603 273.747 468.438 273.815 468.24C273.602 467.936 273.488 467.718 273.475 467.584C273.492 467.44 273.413 467.364 273.238 467.358C273.286 467.203 273.277 467.033 273.211 466.849C273.144 466.665 273.162 466.521 273.262 466.415C273.218 466.293 273.149 466.197 273.055 466.127C272.991 466.046 272.948 465.975 272.926 465.914C272.93 465.636 272.911 465.487 272.869 465.467C272.858 465.436 272.842 465.39 272.82 465.329C272.657 464.973 272.531 464.672 272.443 464.427C272.386 464.171 272.36 463.955 272.366 463.78C272.403 463.594 272.379 463.43 272.293 463.287C272.207 463.145 272.22 463.037 272.332 462.962C272.207 462.903 272.122 462.813 272.078 462.69C272.065 462.557 272.03 462.413 271.975 462.26C271.931 462.137 271.865 461.954 271.777 461.709C271.709 461.422 271.688 461.222 271.717 461.108C271.756 461.024 271.733 460.912 271.647 460.77C271.581 460.586 271.52 460.417 271.465 460.264C271.46 460.058 271.416 459.936 271.333 459.897C271.269 459.816 271.242 459.739 271.25 459.667C271.212 459.369 271.248 459.131 271.357 458.954C271.263 458.884 271.178 458.793 271.104 458.682C271.049 458.529 270.968 458.402 270.863 458.301C270.805 458.045 270.763 457.784 270.736 457.517C270.74 457.238 270.698 456.977 270.61 456.732C270.544 456.548 270.426 456.365 270.257 456.184C270.108 455.961 270.077 455.73 270.164 455.491C269.997 455.413 269.864 455.236 269.765 454.96C269.791 454.743 269.772 454.594 269.708 454.513C269.664 454.391 269.647 454.294 269.655 454.221C269.683 454.107 269.717 454.009 269.756 453.925C269.815 453.801 269.864 453.696 269.903 453.613C270.026 453.569 270.129 453.567 270.212 453.606C270.315 453.603 270.433 453.596 270.567 453.582C270.884 453.503 271.144 453.409 271.348 453.301C271.582 453.182 271.821 453.079 272.067 452.991C272.353 452.922 272.522 452.862 272.572 452.809C272.653 452.745 272.739 452.697 272.831 452.664C273.107 452.565 273.296 452.514 273.399 452.512C273.533 452.498 273.63 452.48 273.691 452.458C273.964 452.256 274.137 452.16 274.21 452.168C274.271 452.146 274.322 452.145 274.364 452.165C274.618 452.004 274.826 451.912 274.991 451.887C275.155 451.863 275.297 451.777 275.417 451.63C275.712 451.489 276.07 451.378 276.49 451.296C276.941 451.203 277.33 451.081 277.656 450.929C277.798 450.843 277.936 450.794 278.069 450.78C278.233 450.756 278.392 450.716 278.545 450.661C278.81 450.531 279.095 450.411 279.402 450.301C279.738 450.18 280.088 450.141 280.449 450.184C280.764 450.001 281.1 449.829 281.456 449.666C281.813 449.503 282.217 449.375 282.667 449.282C282.821 449.227 283 449.197 283.206 449.192C283.648 449.172 283.894 449.135 283.945 449.082C284.034 448.946 284.119 448.846 284.2 448.783C284.27 448.689 284.325 448.6 284.364 448.516C284.723 448.456 285.027 448.485 285.277 448.603C285.527 448.721 285.826 448.734 286.174 448.644C286.31 448.733 286.393 448.773 286.424 448.761C286.485 448.739 286.6 448.819 286.769 449C286.908 449.193 286.978 449.341 286.98 449.443C287.013 449.535 287.043 449.715 287.07 449.982C287.073 450.085 287.081 450.203 287.094 450.337C287.096 450.439 287.114 450.537 287.147 450.629C287.161 450.762 287.205 450.885 287.279 450.996C287.385 451.097 287.459 451.208 287.504 451.331C287.567 451.412 287.606 451.519 287.619 451.653C287.652 451.744 287.685 451.836 287.718 451.928C287.784 452.112 287.86 452.275 287.946 452.417C288.032 452.559 288.081 452.697 288.095 452.831C288.119 452.995 288.102 453.139 288.043 453.264C287.984 453.389 287.935 453.493 287.896 453.577C287.876 453.618 287.796 453.682 287.653 453.768C287.511 453.853 287.364 453.924 287.21 453.979C287.016 454.014 286.831 454.029 286.655 454.023C286.469 453.986 286.294 453.98 286.13 454.004C285.874 454.062 285.65 454.16 285.457 454.298C285.284 454.395 285.09 454.43 284.873 454.404C284.728 454.387 284.646 454.399 284.627 454.441C284.607 454.483 284.521 454.531 284.367 454.586C284.214 454.641 284.056 454.681 283.891 454.706C283.758 454.719 283.631 454.799 283.511 454.946C283.305 454.951 283.105 454.971 282.91 455.007C282.735 455 282.494 455.052 282.188 455.163C282.096 455.196 281.994 455.249 281.883 455.324C281.791 455.357 281.699 455.39 281.607 455.423C281.301 455.533 280.993 455.592 280.684 455.599C280.376 455.607 280.08 455.747 279.798 456.022C279.553 456.11 279.368 456.125 279.243 456.066C278.697 456.47 278.116 456.731 277.501 456.848C276.886 456.965 276.269 457.222 275.65 457.617C275.801 458.324 275.971 458.99 276.161 459.613C276.35 460.237 276.536 460.897 276.717 461.593C276.869 461.919 276.957 462.164 276.981 462.328C276.995 462.461 277.008 462.595 277.021 462.728C277.076 462.882 277.105 463.01 277.108 463.113C277.099 463.185 277.106 463.252 277.128 463.313C277.253 463.372 277.371 463.364 277.482 463.289C277.625 463.203 277.751 463.123 277.863 463.048C278.077 462.971 278.257 462.941 278.401 462.959C278.566 462.934 278.672 462.844 278.719 462.689C278.967 462.703 279.188 462.693 279.383 462.658C279.547 462.633 279.71 462.557 279.872 462.43C280.064 462.291 280.252 462.189 280.436 462.123C280.559 462.079 280.717 462.039 280.912 462.004C281.096 461.938 281.27 461.892 281.434 461.868C281.723 461.902 281.929 461.898 282.051 461.853C282.205 461.798 282.355 461.831 282.502 461.951C282.95 461.755 283.38 461.652 283.792 461.643C284.306 461.631 284.693 461.647 284.951 461.693C285.229 461.696 285.513 461.716 285.802 461.75C286.019 461.776 286.2 461.797 286.344 461.814C286.489 461.832 286.649 461.843 286.824 461.85C287.071 461.864 287.309 461.9 287.537 461.956C287.754 461.982 288.012 462.028 288.312 462.093C288.582 462.169 288.847 462.281 289.108 462.429C289.358 462.547 289.634 462.69 289.937 462.858C290.145 462.956 290.343 463.075 290.532 463.214C290.74 463.312 290.958 463.39 291.186 463.446C291.368 463.761 291.619 463.93 291.939 463.953C292.277 464.316 292.621 464.694 292.97 465.088C293.319 465.481 293.668 465.874 294.017 466.268C294.092 466.379 294.13 466.486 294.133 466.589C294.135 466.692 294.137 466.795 294.14 466.898C294.32 467.11 294.521 467.332 294.742 467.564C294.953 467.765 295.113 468.018 295.224 468.325Z" fill="#D72929"/>
</svg>
